<svg id="Layer_1" data-name="Layer 1" xmlns="http://www.w3.org/2000/svg" viewBox="0 0 446.47 450"><defs><style>.cls-1{fill:#f49039;}.cls-2{fill:#710102;}.cls-3{fill:#efc5a5;}.cls-4{fill:#981928;}.cls-5{fill:#fd897e;}.cls-6{fill:#da3233;}.cls-7{fill:#f24336;}.cls-8{fill:#b50000;}.cls-9{fill:#a20100;}.cls-10{fill:#840101;}.cls-11{fill:#710101;}.cls-12{fill:#fd897f;}.cls-13{fill:#840000;}.cls-14{fill:#a20101;}.cls-15{fill:#fbc600;}.cls-16{fill:#f58e3e;}</style></defs><path class="cls-1" d="M105.9,142.45c-8.94-7.44-17.81-14.93-25-24C62.58,95.33,53.73,69.29,53.73,40.29c0-15.11-5.57-21.82-20.78-26.47a20.71,20.71,0,0,1-2.75-1.41c3.61-5.5,8.94-8.08,14.7-10.14,1.16.17,2.28.23,3.09-.82h0l14.1-.08A34.66,34.66,0,0,1,81.56,13.18c3.42-3,6.3-6,10-8.18C95.46,2.78,99.88,2.05,104,.5h8c9.83,2.18,18.39,6.3,24,14.75,1.76,2.64,3.62,5.32,3.27,8.66-1.76,1.29-3.38.46-4.93.18C117.3,21,99.83,33.73,99.11,50.41,98.1,73.82,107,93,126.86,107.18c-.22,1.8,1.53,2.48,2.31,3.71a4,4,0,0,1-2.73-1C105.65,95,95.5,75.4,96.85,50.25c.7-13,11.46-25.54,25.57-28.21,4.28-.81,8.79-.53,13.81-.77-2.36-7.49-7.61-11.85-13.9-14.76C106.2-.94,92.8,4.08,81.39,16.83,75.22,9.25,68.38,4.12,59,3.42c-9-.66-17.39.59-24.26,7.75,1.4.6,2.28,1,3.14,1.35C49.62,17.8,56.51,26.07,56.05,39.08c-.26,7.35.76,14.61,1.86,21.88,5,33.2,22.51,59.43,49.87,79.43,22.72,16.6,48.85,24.5,78.12,23.6-2.26-6.13-4.16-12.26-4.12-18.94s1.61-12.85,4.39-19.65c-2.68,0-4.65.17-6.57,0-3.55-.39-7.31,1.07-10.66-1.08h17.72c17.24-28.59,60.68-29.61,79.08.08h15.34c-4.61,2.32-9.79,0-14.88,1.63,5.61,12.33,4.93,24.77.86,37.06a5.94,5.94,0,0,0,1.37.63c1.32.08,2.65.11,4,.12,17.26.08,33.45-4.16,48.95-11.19,30.89-14,52.09-36.62,64.86-66.9C393,69.59,394,52.6,394.9,35.6c.49-9.73,5.37-16.5,14-21.1,2.25-1.2,4.63-2.19,7.7-3.62-18.33-12.75-33.91-9-48.1,5.64-9.34-12-21.18-15.71-35.22-12-9,2.37-15.11,8.31-19.05,17.1,3.55,0,6.21,0,8.87,0,16.58.15,30.65,13.79,31,29.7.29,13.22-2.33,25.68-9.31,37.15-5.42,8.91-12,16.75-21.85,21.58.38-1,.76-1.9,1.13-2.86,18.4-13.13,27.32-31,27.8-52.74.44-20-16.4-33.43-36.89-30.1-1.13.18-2.29.55-3.72-.41.17-4.72,3.12-8.33,6.08-11.89C322.88,5.33,330.44,2,339,.5h7c9.14,1.71,17.12,5.47,22.92,13,5.48-6.29,11.55-10.28,19.1-12l15,0h0c1,0,1,0,3.07.89,5.71,1.93,10.61,4.89,14.1,9.37-1.1,2.5-3.05,2.11-4.56,2.54-11.13,3.12-18.53,11.67-18.49,22.83.07,21.92-4,42.82-14.7,62.37a124.87,124.87,0,0,1-34.29,40,40.89,40.89,0,0,0-3.19,3c-2.66.68-4.57,2.57-6.79,3.94a132.2,132.2,0,0,1-39.57,16.5,148.72,148.72,0,0,1-33.83,3.75c-15.7,25.1-57.31,30.29-77.6-.06A138.75,138.75,0,0,1,133.31,157C123.57,153.17,114.83,147.67,105.9,142.45Zm120.41-37.32c-22.48-1.6-42.16,17.72-42.24,39.47-.1,22.78,19.23,39.93,41.35,40.6s42.43-18.47,42.79-39.32C268.58,123.82,248.67,103.72,226.31,105.13Z" transform="translate(-2 -0.5)"/><path class="cls-2" d="M2,399.05c2-.71,2.23-2.94,3.88-3.92,2,.79,4,1.48,5.93,2.4Q40.92,411.6,70,425.73l-.21.32-.69.77-3.29,4.6L2,401Z" transform="translate(-2 -0.5)"/><path class="cls-3" d="M62,.5q0,.44.09.87L48,1.45A7.53,7.53,0,0,0,48,.5Z" transform="translate(-2 -0.5)"/><path d="M377.91,422.27c-7-5.34-13.52-11.26-21.43-15.46-19.74-10.48-40.47-12.9-63-7.43-6.21,16.07-21.12,24-35.47,32.5-10.62,6.28-21.41,12.31-32.43,18.62-18.55-10.19-37.4-19.74-54.11-32.51-6.2-4.74-9.12-12.11-13.43-18.72-31-7.5-58.1-.6-81.58,20.19-1.44,1.27-2.48,3-4.45,3.7.07-2,1.47-3.49,2.48-5.1,8.66-13.92,16.92-28,23.47-43,2.74-2.72,3.29-6.46,4.88-9.71A430.55,430.55,0,0,0,122,314.53a15.72,15.72,0,0,0,3-9.52c3.27-10.43,5.69-21.07,8.14-31.7a32.74,32.74,0,0,0,2.65-13.37l3.33-21.31a4.15,4.15,0,0,1,2.84.61c18.9,9.75,39.22,15,60.44,17,36.45,3.5,71.75-.19,104.94-16.29,1.35-.65,2.73-2.2,4.43-.49.88,6.79,1.55,13.62,3.36,20.27.4,4.6.75,9.21,2.66,13.54A293,293,0,0,0,326.05,306c.52,4.33,2.33,8.3,3.82,12.35,5.41,16.73,11.44,33.23,19.1,49.16.81,2.77,1.39,5.65,3.87,7.64,5.46,13.62,13.29,26.07,20.68,38.75C375.11,416.58,377.63,418.9,377.91,422.27ZM210.38,290.67c-13-6.5-24.9-13.55-38.47-17.1a33,33,0,0,0-27.15,4.17c-1.7,1.09-3.78,2.05-3.93,4.51,9.52,3.75,17.54,9.9,26.67,14.11,7.8,3.59,15.73,5.7,24.54,3.93C199,298.88,203.65,293.91,210.38,290.67Zm32.83.18c3.38,2.24,6.29,4.09,9.11,6.07,6.05,4.24,12.88,5,20,3.9a45.86,45.86,0,0,0,14-4.9c8.53-4.39,16.22-10.13,25.68-13.89-10.41-9.47-21.9-11.36-34.59-7.3C265.34,278.59,254.44,284.78,243.21,290.85ZM182,396.34c29.29-5.2,57.93-1.16,86.88-.12-.45-4.23-.84-7.84-1.26-11.74a170.16,170.16,0,0,0-84.47,1.43C182.78,389.37,182.43,392.5,182,396.34Zm78.52-28.71c-3.59-.59-6.5.41-9.46.72-18.64,1.91-37.25,1.31-55.82-.66-4.68-.5-7.36.95-8.82,5-1.14,3.11-2.53,6.19-2.27,9.83,27.53-7.12,55-7.24,82.84-1.41C265.57,375.66,264.9,370.81,260.53,367.63Zm12.4,41.44c7.49-12.31,12.48-25.6,17.42-38.67-4.57-7.87-13.72-9.1-25.58-3.8C272.52,379.81,271.53,394.51,272.93,409.07ZM161,370.5c5.07,13.81,9.76,27.45,17.14,40.09.68-7.44.69-14.74,1.58-22,.9-7.46,2.14-14.8,6.53-22.37C177.4,368.1,167.94,359.13,161,370.5Z" transform="translate(-2 -0.5)"/><path class="cls-4" d="M98.77,168.74a120.6,120.6,0,0,1,6.65-25.57l.37-.17,0-.43.13-.12c8.93,5.22,17.67,10.72,27.41,14.57a138.75,138.75,0,0,0,53.83,9.59c20.29,30.35,61.9,25.16,77.6.06a148.72,148.72,0,0,0,33.83-3.75,132.2,132.2,0,0,0,39.57-16.5c2.22-1.37,4.13-3.26,6.79-3.94,3.7,9.1,3.19,19.27,7.27,28.19.8,1.73.8,1.73,1.8,3.66a246.78,246.78,0,0,0-23.07,27.81c-8.48-.17-16.84,1-25.23,1.87-16.8,1.84-33.73,1.27-50.59,1.78-27.52.82-55.08.44-82.6-.71-4.66-.2-9.35.16-14-.2-12.86-1-25.67-2.66-38.61-2.64h0l-.87-1c-1.68-2.34-3.45-4.64-5-7.05-4.66-7.13-11.11-12.9-16.06-19.81l.33-3.17" transform="translate(-2 -0.5)"/><path class="cls-5" d="M389.86,218.19c-3.94,2-7.88,4-11.84,6-21.58,10.85-42.15,23.34-62.91,35.53-1.81-6.65-2.48-13.48-3.36-20.27,1.49-4.88,4.18-9.27,6.28-13.9,3.69-8.13,8.81-15.52,12.9-23.44,6.51-9.07,13.61-19.65,21.56-27.69.11-1.8-.11,1.73,0,0,.41,1-.56-1.36,0,0,13-12.43,28.35-23.15,46.25-27.51,5.81-1.41,11.86-2.87,18.45-2,5.64,19.18,11.21,38.14,16.78,57.1a27.27,27.27,0,0,0-7.7,1.47c-8.69,2.47-16.89,6.15-25.28,9.38" transform="translate(-2 -0.5)"/><path class="cls-6" d="M349,367.46c-7.66-15.93-13.69-32.43-19.1-49.15.31-1.35-.36-2.94,1.7-4.48l58.3-28.06c-1.66,2.12.55,3.2,1.46,4.45Q406.59,311,422,331.73l-67.46,33.88C352.77,366.5,351.11,367.67,349,367.46Z" transform="translate(-2 -0.5)"/><path class="cls-4" d="M98,375.06c-6.55,15-14.81,29.08-23.47,43-1,1.61-2.41,3.07-2.48,5.1l.06-.11c-.37.49-.74,1-1.12,1.46.08.71-.28,1.09-1,1.22q-29.08-14.12-58.18-28.2c-1.91-.92-3.95-1.61-5.93-2.4q15.89-21.47,31.72-42.94c1.09-1.48,3-2.7,2.37-5Z" transform="translate(-2 -0.5)"/><path class="cls-4" d="M377.91,422.27c-.28-3.37-2.8-5.69-4.39-8.42-7.39-12.68-15.22-25.13-20.68-38.75L411,347.2c-1.12,2.3,1,3.51,2,4.94,10.59,14.39,21.28,28.72,31.94,43.07a18.47,18.47,0,0,0-3.79,1Q411,411,380.91,425.91a5.52,5.52,0,0,1-2.63-2.66c.12-.25.23-.5.35-.77l-.76-.34Z" transform="translate(-2 -0.5)"/><path class="cls-7" d="M326.05,306a290.77,290.77,0,0,1-8.27-32.66c4.1-4.92,9.63-8.24,14.87-11.81,14.11-9.61,29.85-16.35,45.4-23.42-.45,2.05,1.22,3.2,2.22,4.57q10.17,13.86,20.44,27.63c-19.65,9.59-39.28,19.23-59,28.71C336.57,301.45,331.92,305,326.05,306Z" transform="translate(-2 -0.5)"/><path class="cls-8" d="M378.05,238.06c-15.55,7.07-31.29,13.81-45.4,23.42-5.24,3.57-10.77,6.89-14.87,11.81-1.92-4.33-2.27-8.94-2.67-13.54,20.76-12.19,41.33-24.68,62.91-35.53,4-2,7.9-4,11.84-6l11.13-5.3c8.39-3.23,16.59-6.91,25.28-9.38A27.27,27.27,0,0,1,434,202l.14.24A2.36,2.36,0,0,0,435,205l3.14,11.75C417.43,222.87,397.61,230.13,378.05,238.06Z" transform="translate(-2 -0.5)"/><path class="cls-9" d="M326.05,306c5.87-1,10.52-4.5,15.66-7,19.72-9.48,39.35-19.12,59-28.71a29.51,29.51,0,0,1,5.63,7.77l-16.47,7.74-58.3,28.06c-2.06,1.54-1.39,3.13-1.7,4.48C328.38,314.25,326.57,310.28,326.05,306Z" transform="translate(-2 -0.5)"/><path class="cls-10" d="M411,347.2l-58.15,27.9c-2.48-2-3.06-4.87-3.87-7.64,2.14.21,3.8-1,5.55-1.85L422,331.73c1.86,2.34,3.71,4.69,5.95,7.5C421.85,342.08,416.42,344.64,411,347.2Z" transform="translate(-2 -0.5)"/><path class="cls-11" d="M380.91,425.91Q411,411,441.15,396.18a18.47,18.47,0,0,1,3.79-1,14.93,14.93,0,0,1,3.53,5c-3.18,2.38-56.75,28.35-63.28,30.72C383.11,429.82,382.18,427.72,380.91,425.91Z" transform="translate(-2 -0.5)"/><path class="cls-5" d="M435,205a2.36,2.36,0,0,1-.84-2.71A2.4,2.4,0,0,1,435,205Z" transform="translate(-2 -0.5)"/><path class="cls-4" d="M69.09,426.82l.69-.77Z" transform="translate(-2 -0.5)"/><path d="M71,424.51c.38-.48.75-1,1.12-1.46C71.72,423.54,71.35,424,71,424.51Z" transform="translate(-2 -0.5)"/><path d="M377.87,422.14l.76.34c-.12.27-.23.52-.35.77C378.15,422.88,378,422.51,377.87,422.14Z" transform="translate(-2 -0.5)"/><path class="cls-4" d="M324,107.15c-.37,1-.75,1.91-1.13,2.86-12.71,8.09-26.85,12.34-41.82,14.35H265.74c-18.4-29.69-61.84-28.67-79.08-.08H168.94c-14.16-2-27.56-6.06-39.77-13.39-.78-1.23-2.53-1.91-2.31-3.71,14.44-15.66,31.32-28,51.78-35.66,49.8-18.6,105.64-6,141.52,32C321.38,104.77,322.74,105.93,324,107.15Z" transform="translate(-2 -0.5)"/><path class="cls-12" d="M61,218.5l-11.73-5.57a153.26,153.26,0,0,0-27.71-10.17c-2.12-.55-4.18-1.22-5.52,1.24q6.2-20.9,12.38-41.79c1.69-5.65,3.44-11.27,5.28-17.29,8.25-.44,16,1.17,23.48,3.59,14.29,4.61,26.34,12.73,37,22.84,1.17,1.1,2.53,2,3.8,3,5,6.91,11.4,12.68,16.06,19.81,1.58,2.41,3.35,4.71,5,7.05l.88,1h0c6.72,12,13.56,23.88,19.18,36.39l-3.33,21.31a17.68,17.68,0,0,1-2.72-1.13C109.63,244.33,85.66,230.76,61,218.32" transform="translate(-2 -0.5)"/><path class="cls-6" d="M122,314.53a430.55,430.55,0,0,1-19.15,50.82q-23.11-11.44-46.25-22.88c-8.8-4.34-17.21-9.42-26.54-12.74,9.63-13,19.3-25.93,28.87-39,1.06-1.44,3.12-2.67,2.07-5,11.76,5.44,23.62,10.7,35.24,16.41C104.8,306.4,113.84,309.62,122,314.53Z" transform="translate(-2 -0.5)"/><path class="cls-7" d="M133.12,273.31c-2.45,10.63-4.87,21.27-8.14,31.7-2.14.24-3.79-.94-5.56-1.78L50,270.22l23-31.49C94.53,247.79,115.29,258.2,133.12,273.31Z" transform="translate(-2 -0.5)"/><path class="cls-8" d="M133.12,273.31c-17.83-15.11-38.59-25.52-60.19-34.58-19.38-8.5-39.41-15.36-59.86-21.72,0-4.63,2.19-8.68,3-13,1.34-2.46,3.4-1.79,5.52-1.24,9.61,2.47,18.64,6.37,27.71,10.17.9.37,1.84.65,2.76,1,2.71,2,5.89,3.12,9,4.42,24.66,12.44,48.63,26,72.05,40.49a17.68,17.68,0,0,0,2.72,1.13A32.74,32.74,0,0,1,133.12,273.31Z" transform="translate(-2 -0.5)"/><path class="cls-13" d="M30.07,329.73c9.33,3.32,17.74,8.4,26.54,12.74q23.16,11.38,46.25,22.88c-1.59,3.25-2.14,7-4.88,9.71L40,347.21l-16.55-7.75C25.21,335.59,27.74,332.72,30.07,329.73Z" transform="translate(-2 -0.5)"/><path class="cls-14" d="M50,270.22l69.45,33c1.77.84,3.42,2,5.56,1.78a15.72,15.72,0,0,1-3,9.52c-8.17-4.91-17.21-8.13-25.76-12.32-11.62-5.71-23.48-11-35.24-16.41L44.11,278A21.25,21.25,0,0,1,50,270.22Z" transform="translate(-2 -0.5)"/><path class="cls-3" d="M48,1.45c-.81,1.05-1.93,1-3.09.82C45.72,1.27,46.85,1.34,48,1.45Z" transform="translate(-2 -0.5)"/><path class="cls-1" d="M105.77,142.57l0,.43-.37.17,0-.41Z" transform="translate(-2 -0.5)"/><path class="cls-15" d="M129.17,110.89c12.21,7.33,25.61,11.41,39.77,13.39,3.35,2.15,7.11.69,10.66,1.08,1.92.21,3.89,0,6.57,0-2.78,6.8-4.35,13-4.39,19.65s1.86,12.81,4.12,18.94c-29.27.9-55.4-7-78.12-23.6C80.42,120.39,63,94.16,57.91,61c-1.1-7.27-2.12-14.53-1.86-21.88.46-13-6.43-21.28-18.15-26.56-.86-.38-1.74-.75-3.14-1.35C41.63,4,50.05,2.76,59,3.42c9.36.7,16.2,5.83,22.37,13.41C92.8,4.08,106.2-.94,122.33,6.51c6.29,2.91,11.54,7.27,13.9,14.76-5,.24-9.53,0-13.81.77C108.31,24.71,97.55,37.2,96.85,50.25,95.5,75.4,105.65,95,126.44,109.93A4,4,0,0,0,129.17,110.89Z" transform="translate(-2 -0.5)"/><path class="cls-15" d="M281.08,124.36c15-2,29.11-6.26,41.82-14.35,9.81-4.83,16.43-12.67,21.85-21.58,7-11.47,9.6-23.93,9.31-37.15-.35-15.91-14.42-29.55-31-29.7-2.66,0-5.32,0-8.87,0,3.94-8.79,10-14.73,19.05-17.1,14-3.67,25.88,0,35.22,12,14.19-14.66,29.77-18.39,48.1-5.64-3.07,1.43-5.45,2.42-7.7,3.62-8.59,4.6-13.47,11.37-14,21.1-.87,17-1.87,34-8.68,50.11-12.77,30.28-34,52.89-64.86,66.9-15.5,7-31.69,11.27-48.95,11.19-1.33,0-2.66,0-4-.12a5.94,5.94,0,0,1-1.37-.63c4.07-12.29,4.75-24.73-.86-37.06C271.29,124.38,276.47,126.68,281.08,124.36Z" transform="translate(-2 -0.5)"/><path class="cls-15" d="M226.31,105.13c22.36-1.41,42.27,18.69,41.9,40.75-.36,20.85-20.66,40-42.79,39.32S184,167.38,184.07,144.6C184.15,122.85,203.83,103.53,226.31,105.13Z" transform="translate(-2 -0.5)"/><path class="cls-6" d="M139.1,238.63c-5.62-12.51-12.46-24.42-19.18-36.39,12.94,0,25.75,1.63,38.61,2.64,4.63.36,9.32,0,14,.2,27.52,1.15,55.08,1.53,82.6.71,16.86-.51,33.79.06,50.59-1.78,8.39-.92,16.75-2,25.23-1.87-4.09,7.92-9.21,15.31-12.9,23.44-2.1,4.63-4.79,9-6.28,13.9-1.7-1.71-3.08-.16-4.43.49-33.19,16.1-68.49,19.79-104.94,16.29-21.22-2-41.54-7.27-60.44-17A4.15,4.15,0,0,0,139.1,238.63Z" transform="translate(-2 -0.5)"/><path class="cls-6" d="M120,202.24l-.88-1Z" transform="translate(-2 -0.5)"/><path class="cls-16" d="M66.17,177.16c-10.58-1.51-20.8,9.63-20.36,18.41.57,11.31,8.43,19.91,19.59,20,10.88.09,20.49-8.85,20.55-19.35C86,184.14,75.08,176.29,66.17,177.16Z" transform="translate(-2 -0.5)"/><path class="cls-15" d="M365,195.85c0-10.69,8.63-18.19,20-18.84,10.18-.58,20.26,9,20.05,19a20.32,20.32,0,0,1-20.66,19.58A19.63,19.63,0,0,1,365,195.85Z" transform="translate(-2 -0.5)"/><path class="cls-15" d="M66.17,177.16c8.91-.87,19.84,7,19.78,19.06-.06,10.5-9.67,19.44-20.55,19.35-11.16-.09-19-8.69-19.59-20C45.37,186.79,55.59,175.65,66.17,177.16Z" transform="translate(-2 -0.5)"/></svg>